<?xml version="1.0" encoding="utf-8"?>
<!-- Generator: Adobe Illustrator 24.0.0, SVG Export Plug-In . SVG Version: 6.00 Build 0)  -->
<svg version="1.1" id="Layer_1" xmlns="http://www.w3.org/2000/svg" xmlns:xlink="http://www.w3.org/1999/xlink" x="0px" y="0px"
	 viewBox="0 0 99.32 36" style="enable-background:new 0 0 99.32 36;" xml:space="preserve">
<style type="text/css">
	.st0{fill:#00A39C;}
	.st1{fill:#8EC441;}
	.st2{fill:url(#SVGID_1_);}
	.st3{fill:url(#SVGID_2_);}
	.st4{fill:url(#SVGID_3_);}
	.st5{fill:url(#SVGID_4_);}
	.st6{fill:url(#SVGID_5_);}
	.st7{fill:url(#SVGID_6_);}
	.st8{fill:url(#SVGID_7_);}
	.st9{fill:url(#SVGID_8_);}
</style>
<g>
	<g>
		<path class="st0" d="M36.53,4.82v7.44c0,1.01,0.27,1.93,1.62,1.93c1.31,0,1.57-0.88,1.57-1.93V4.82h3.19v7.33
			c0,2.67-1.35,4.36-4.82,4.36c-3.45,0-4.73-1.7-4.73-4.37V4.82H36.53z"/>
		<path class="st0" d="M44.65,10.25c0-1.82-0.01-2.35-0.03-2.75h3c0.03,0.16,0.07,0.66,0.08,0.98c0.38-0.61,1.17-1.17,2.4-1.17
			c1.81,0,2.71,1.22,2.71,3.13v5.84h-3.07v-5.33c0-0.83-0.18-1.33-0.95-1.33c-0.7,0-1.07,0.38-1.07,1.6v5.06h-3.07V10.25z"/>
		<path class="st0" d="M54.64,7.5h3.07v8.79h-3.07V7.5z"/>
		<path class="st1" d="M43.45,26.66c-0.31,2.26-1.77,4.03-4.91,4.03c-3.88,0-5.17-2.71-5.17-5.93c0-3.28,1.66-5.96,5.28-5.96
			c3.49,0,4.65,2.2,4.74,3.97h-3.1c-0.16-0.87-0.45-1.65-1.68-1.65c-1.48,0-1.96,1.52-1.96,3.63c0,2.13,0.48,3.62,1.96,3.62
			c1.24,0,1.58-0.92,1.72-1.7H43.45z"/>
		<path class="st1" d="M44.75,24.66c0-1.48,0-2.46-0.03-2.98h2.99c0.04,0.34,0.07,1.09,0.06,1.57c0.29-0.85,1.06-1.74,2.57-1.74v2.9
			c-1.85-0.04-2.52,0.49-2.52,2.34v3.71h-3.07V24.66z"/>
		<path class="st1" d="M54.2,26.7c-0.01,1,0.32,1.84,1.28,1.84c0.77,0,1.01-0.46,1.13-0.86h2.94c-0.35,1.33-1.32,2.95-4.15,2.95
			c-3.15,0-4.3-2.07-4.3-4.56c0-2.23,1.12-4.59,4.39-4.59c3.2,0,4.16,2.19,4.16,4.48c0,0.09-0.01,0.63-0.02,0.73H54.2z M56.62,25
			c-0.02-0.83-0.27-1.51-1.17-1.51c-0.94,0-1.2,0.73-1.22,1.51H56.62z"/>
		<path class="st1" d="M68.67,27.94c0,0.72,0.03,1.94,0.12,2.52h-2.67c-0.08-0.22-0.13-0.69-0.16-0.93c-0.51,0.73-1.36,1.1-2.47,1.1
			c-2.01,0-2.92-1.26-2.92-2.72c0-1.55,0.97-2.93,4.16-2.93c0.22,0,0.58,0,0.96,0v-0.63c0-0.62-0.21-1-0.91-1
			c-0.77,0-0.94,0.42-0.99,0.98h-2.88c0.08-1.4,0.97-2.86,3.95-2.86c2.62,0,3.83,0.94,3.83,3V27.94z M65.73,26.59
			c-0.23,0-0.45,0-0.77,0c-1.13,0-1.37,0.52-1.37,1.05c0,0.51,0.29,0.91,0.94,0.91c1.01,0,1.2-0.7,1.2-1.73V26.59z"/>
		<path class="st1" d="M69.57,21.68h1.14v-2.26h3.05v2.26h1.41v2.15h-1.41v3.86c0,0.55,0.13,0.76,0.8,0.76c0.17,0,0.22,0,0.44-0.03
			v1.95c-0.52,0.17-1.32,0.2-1.72,0.2c-2.01,0-2.56-0.75-2.56-2.47v-4.28h-1.14V21.68z"/>
		<path class="st1" d="M76.35,21.68h3.07v8.79h-3.07V21.68z"/>
		<path class="st1" d="M89.73,25.96c0,2.48-1.21,4.69-4.5,4.69c-3.3,0-4.41-2.27-4.41-4.64c0-1.94,1.03-4.52,4.52-4.52
			C88.71,21.49,89.73,23.87,89.73,25.96z M83.96,25.98c0,1.81,0.43,2.57,1.35,2.57c0.86,0,1.28-0.78,1.28-2.56
			c0-1.7-0.39-2.38-1.33-2.38C84.41,23.61,83.96,24.33,83.96,25.98z"/>
		<path class="st1" d="M91.16,24.61c0-1.82-0.01-2.35-0.03-2.75h3c0.03,0.16,0.07,0.66,0.08,0.98c0.38-0.61,1.17-1.17,2.4-1.17
			c1.81,0,2.71,1.22,2.71,3.13v5.84h-3.07v-5.33c0-0.83-0.18-1.33-0.95-1.33c-0.7,0-1.07,0.38-1.07,1.6v5.06h-3.07V24.61z"/>
		<circle class="st0" cx="56.17" cy="5.55" r="1.53"/>
	</g>
	<circle class="st1" cx="77.88" cy="19.41" r="1.71"/>
	<g>
		<linearGradient id="SVGID_1_" gradientUnits="userSpaceOnUse" x1="10.2586" y1="13.9183" x2="20.0936" y2="24.0412">
			<stop  offset="0.1061" style="stop-color:#00A39C"/>
			<stop  offset="1" style="stop-color:#00A39C"/>
		</linearGradient>
		<path class="st2" d="M9.11,15.51v2.15c0,0.18,0.01,0.36,0.02,0.54c0.15,2.6,1.39,4.91,3.26,6.48c0.99,0.51,2.1,0.8,3.29,0.8
			c3.95,0,7.15-3.2,7.15-7.15c0-0.04,0-0.08,0-0.13c-0.13,1.17-0.7,2.2-1.55,2.93c-0.8,0.7-1.85,1.12-2.99,1.12
			c-2.53,0-4.57-2.05-4.57-4.57v-6.23C11.64,12.05,9.95,13.55,9.11,15.51z"/>
		<linearGradient id="SVGID_2_" gradientUnits="userSpaceOnUse" x1="19.7598" y1="23.9054" x2="11.8217" y2="15.0898">
			<stop  offset="0" style="stop-color:#231F20;stop-opacity:0.3"/>
			<stop  offset="1" style="stop-color:#231F20;stop-opacity:0"/>
		</linearGradient>
		<path class="st3" d="M9.11,15.51v2.15c0,0.18,0.01,0.36,0.02,0.54c0.15,2.6,1.39,4.91,3.26,6.48c0.99,0.51,2.1,0.8,3.29,0.8
			c3.95,0,7.15-3.2,7.15-7.15c0-0.04,0-0.08,0-0.13c-0.13,1.17-0.7,2.2-1.55,2.93c-0.8,0.7-1.85,1.12-2.99,1.12
			c-2.53,0-4.57-2.05-4.57-4.57v-6.23C11.64,12.05,9.95,13.55,9.11,15.51z"/>
		<path class="st0" d="M27.45,1.89c-1.42-0.83-2.97-1.47-4.6-1.89v4.81v4.88v3.77v3.87c0.01,0.12,0.02,0.24,0.02,0.36
			s-0.01,0.24-0.02,0.36c0,0.05-0.01,0.11-0.02,0.16c0,0.04,0,0.08,0,0.13c0,3.95-3.2,7.15-7.15,7.15c-1.19,0-2.31-0.29-3.29-0.8
			c1.6,1.34,3.65,2.15,5.9,2.15c2.43,0,4.64-0.95,6.28-2.49c1.66-1.56,2.74-3.73,2.88-6.14c0-0.01,0-0.01,0-0.02v-1.06v-6.6h0V1.89z
			"/>
		<g>
			<path class="st0" d="M27.95,27.4c-0.04,0.04-0.07,0.08-0.11,0.11c-2.47,2.4-5.84,3.89-9.55,3.89c-7.56,0-13.69-6.13-13.69-13.69
				c0-4.03,1.75-7.66,4.52-10.17v7.96c0.84-1.95,2.53-3.46,4.6-4.05V9.7V4.8V0c-1.63,0.42-3.18,1.06-4.6,1.89
				C3.67,5.05,0,10.95,0,17.71C0,27.81,8.19,36,18.29,36c5.01,0,9.55-2.01,12.85-5.28l0,0c0.02-0.02,0.04-0.05,0.07-0.07L27.95,27.4
				z"/>
			<path class="st0" d="M27.45,1.89C27.45,1.89,27.45,1.89,27.45,1.89v5.66c0.17,0.16,0.34,0.32,0.5,0.48l3.25-3.25
				C30.08,3.67,28.82,2.69,27.45,1.89z"/>
			<linearGradient id="SVGID_3_" gradientUnits="userSpaceOnUse" x1="27.6235" y1="4.9686" x2="29.7177" y2="4.8489">
				<stop  offset="0" style="stop-color:#231F20;stop-opacity:0.3"/>
				<stop  offset="1" style="stop-color:#231F20;stop-opacity:0"/>
			</linearGradient>
			<path class="st4" d="M27.45,1.89C27.45,1.89,27.45,1.89,27.45,1.89v5.66c0.17,0.16,0.34,0.32,0.5,0.48l3.25-3.25
				C30.08,3.67,28.82,2.69,27.45,1.89z"/>
		</g>
		<linearGradient id="SVGID_4_" gradientUnits="userSpaceOnUse" x1="9.0692" y1="7.4053" x2="6.8749" y2="7.4053">
			<stop  offset="0" style="stop-color:#231F20;stop-opacity:0.3"/>
			<stop  offset="1" style="stop-color:#231F20;stop-opacity:0"/>
		</linearGradient>
		<path class="st5" d="M5.45,12.92c0.78-2.08,2.04-3.92,3.66-5.38V1.89C6.13,3.62,3.68,6.17,2.07,9.22v3.7H5.45z"/>
	</g>
</g>
</svg>
